<?xml version="1.0" encoding="UTF-8"?>
<svg version="1.1" xmlns="http://www.w3.org/2000/svg" width="1024" height="1024">
  <path d="M0 0 C2.91760886 1.40224683 4.98897208 2.74606912 7.26806641 5.05688477 C7.88195221 5.67414932 8.49583801 6.29141388 9.12832642 6.92738342 C9.77949432 7.59201096 10.43066223 8.25663849 11.1015625 8.94140625 C11.77923676 9.62428207 12.45691101 10.3071579 13.15512085 11.01072693 C15.31655292 13.18995478 17.47117408 15.37575639 19.625 17.5625 C21.78682946 19.7519283 23.95009169 21.93989101 26.11630249 24.12498474 C27.4634863 25.48444561 28.80798821 26.8465703 30.14956665 28.21156311 C30.75714813 28.82567551 31.36472961 29.4397879 31.99072266 30.07250977 C32.52492828 30.61496841 33.05913391 31.15742706 33.60952759 31.71632385 C34.99172435 33.11174506 34.99172435 33.11174506 37 34 C37 34.66 37 35.32 37 36 C37.66 36 38.32 36 39 36 C39 36.66 39 37.32 39 38 C39.57234375 38.2475 40.1446875 38.495 40.734375 38.75 C43.35010611 40.19316199 45.14773456 41.88216222 47.25 44 C47.95640625 44.70125 48.6628125 45.4025 49.390625 46.125 C51 48 51 48 51 50 C51.66 50 52.32 50 53 50 C54.41235352 51.44018555 54.41235352 51.44018555 56.06640625 53.44921875 C60.79696116 59.01623684 66.03791961 64.02324277 71.29882812 69.08398438 C72.03423828 69.80521484 72.76964844 70.52644531 73.52734375 71.26953125 C74.52882446 72.23789917 74.52882446 72.23789917 75.55053711 73.22583008 C77 75 77 75 77 78 C76.34 78 75.68 78 75 78 C74.6522071 78.83535215 74.6522071 78.83535215 74.29738808 79.68758011 C72.65537829 82.61424188 70.61893376 84.62657978 68.24179077 86.99871826 C67.75413919 87.48807869 67.26648761 87.97743912 66.76405871 88.48162866 C65.13046064 90.11851832 63.48982203 91.74816182 61.84912109 93.37792969 C60.67599764 94.55048896 59.50331448 95.72348889 58.33103943 96.89689636 C55.14770597 100.08080405 51.95824013 103.25850411 48.76765013 106.43513775 C45.4341909 109.75610139 42.10638795 113.08272299 38.77798462 116.40875244 C32.47446652 122.70605234 26.16586713 128.99823627 19.85543311 135.28860497 C12.67141408 142.45027562 5.49306772 149.61762059 -1.6848042 156.78545141 C-16.45022614 171.52996363 -31.22276892 186.26732378 -46 201 C-44.50551812 204.17955723 -43.14898874 205.94462202 -40.375 208.125 C-38.4609375 209.6328125 -38.4609375 209.6328125 -37 211 C-37 211.66 -37 212.32 -37 213 C-36.34 213 -35.68 213 -35 213 C-33.5873155 214.4318943 -33.5873155 214.4318943 -31.93300533 216.43447876 C-27.86869824 221.20930331 -23.51193751 225.62431573 -19.07191467 230.04833984 C-18.19613705 230.9249719 -17.32035942 231.80160395 -16.41804308 232.70480061 C-14.00712249 235.11707559 -11.59399785 237.52710525 -9.17988384 239.93618178 C-6.56943597 242.5422879 -3.96190269 245.15130748 -1.35400391 247.75996399 C3.15797848 252.27246926 7.67177976 256.78314839 12.18684196 261.29257202 C18.71476182 267.81234489 25.2398997 274.33489626 31.76437444 280.85811651 C42.35145765 291.44301422 52.94076941 302.02567951 63.53149414 312.60693359 C73.81587275 322.8821251 84.09919453 333.15837239 94.38110352 343.43603516 C95.01549451 344.07016343 95.6498855 344.7042917 96.30350047 345.35763597 C99.48623043 348.53906084 102.66893969 351.72050642 105.85163867 354.90196228 C132.23121837 381.271185 158.6144197 407.63678168 185 434 C183.60596896 436.89681451 182.27091861 438.97743506 179.98812866 441.25238037 C179.0626548 442.18197823 179.0626548 442.18197823 178.1184845 443.13035583 C177.44307114 443.79857864 176.76765778 444.46680145 176.07177734 445.15527344 C175.35947464 445.86786819 174.64717194 446.58046295 173.9132843 447.31465149 C171.5588785 449.66766451 169.19746875 452.0135151 166.8359375 454.359375 C165.20168245 455.98989975 163.56786854 457.62086676 161.93447876 459.2522583 C157.63493527 463.54416676 153.32941935 467.83003514 149.02264404 472.11468506 C144.62866977 476.48819822 140.24035397 480.86738079 135.8515625 485.24609375 C127.23991236 493.83629625 118.62194389 502.4201302 110 511 C106.47010055 509.33566872 104.17299886 507.42089581 101.40258789 504.64550781 C100.49807388 503.74407043 99.59355988 502.84263306 98.66163635 501.91387939 C97.68179716 500.92713914 96.70214167 499.94021643 95.72265625 498.953125 C94.70938535 497.9386608 93.6957432 496.9245673 92.68174744 495.91082764 C90.55791051 493.78542786 88.43746994 491.65671621 86.31958008 489.52539062 C83.61695814 486.80583357 80.90785552 484.09285042 78.19637394 481.38212967 C76.10188273 479.28736517 74.0100186 477.18999358 71.91900444 475.09175873 C70.92173683 474.09132814 69.92387936 473.09148516 68.92540169 472.09226227 C64.05498502 467.21423094 59.35491325 462.34097775 55 457 C53.34413458 455.32260163 51.67632464 453.6569524 50 452 C-19.32368934 382.67631066 -88.64737868 313.35262132 -200 202 C-198.62373101 198.91134879 -197.04893841 196.79982471 -194.66166496 194.41556931 C-193.96797054 193.71789279 -193.27427612 193.02021627 -192.55956066 192.30139804 C-191.79497858 191.54264164 -191.0303965 190.78388525 -190.24264526 190.00213623 C-189.43239305 189.19017516 -188.62214083 188.3782141 -187.78733552 187.54164815 C-185.53794364 185.28953007 -183.28411789 183.04196081 -181.02835679 180.79622555 C-178.59666797 178.37316878 -176.17075665 175.94433992 -173.74414062 173.51620483 C-169.53927345 169.31028865 -165.33075816 165.1080516 -161.11974716 160.90828705 C-155.03132952 154.83611932 -148.94843805 148.75844042 -142.86688377 142.67939964 C-132.99996169 132.81685546 -123.12858099 122.95878645 -113.25439453 113.10351562 C-103.66220897 103.5296864 -94.07212497 93.95376011 -84.48486328 84.375 C-83.8939636 83.78462577 -83.30306393 83.19425154 -82.6942582 82.58598718 C-79.72991898 79.62425802 -76.76562106 76.66248752 -73.80134368 73.70069647 C-49.2072967 49.12738495 -24.60601299 24.56132936 0 0 Z " fill="#FED800" transform="translate(402,311)"/>
  <path d="M0 0 C4.20820745 1.93004744 7.08630073 4.81227856 10.30981445 8.06689453 C10.9331366 8.68831833 11.55645874 9.30974213 12.19866943 9.94999695 C14.25845835 12.00608123 16.31095537 14.06928084 18.36328125 16.1328125 C19.79774588 17.56846994 21.23258114 19.00375713 22.66777039 20.43869019 C25.6776994 23.45018389 28.68423878 26.46500777 31.68823242 29.48242188 C35.52287395 33.33398421 39.36399532 37.17900095 43.20748615 41.02173042 C46.17361851 43.98813603 49.13712687 46.95715149 52.09978294 49.92702866 C53.51405982 51.34447041 54.9289279 52.76132255 56.34441566 54.17755508 C58.3327954 56.16812562 60.31783499 58.16196956 62.30200195 60.15673828 C62.87834885 60.73263199 63.45469574 61.3085257 64.04850769 61.90187073 C66.86149977 64.73664602 69.55820318 67.61975396 72.15299988 70.65597534 C77.22103235 76.50441536 82.7686492 81.89149731 88.25 87.34765625 C89.48126191 88.57699583 90.71229402 89.80656563 91.94311523 91.03634644 C94.58092246 93.67100765 97.22027146 96.30411081 99.86083984 98.93600464 C104.04150941 103.10308161 108.21829938 107.27403289 112.39453125 111.44555664 C121.26005581 120.30000995 130.12980498 129.15022583 139 138 C148.57809496 147.55604439 158.15544995 157.11282342 167.72792053 166.67450237 C171.8742293 170.81584764 176.02295954 174.95474669 180.17359924 179.0917511 C182.76055684 181.67121684 185.34541174 184.25278195 187.92971802 186.83490372 C189.12241112 188.02573471 190.31596336 189.21570598 191.51046753 190.40472031 C197.04402304 195.91365625 202.54563205 201.40474896 207.58355713 207.38006592 C210.09216048 210.24906413 212.93021045 212.75564293 215.75 215.3125 C223.20736373 222.1961493 230.44298507 229.29587519 237.63391113 236.45565796 C238.87842499 237.69400501 240.12476692 238.93051758 241.3729248 240.16519165 C243.13921232 241.91360972 244.89865446 243.66863104 246.65625 245.42578125 C247.19610535 245.95848633 247.73596069 246.49119141 248.29217529 247.04003906 C252 250.77090321 252 250.77090321 252 253 C252.598125 253.268125 253.19625 253.53625 253.8125 253.8125 C255.99847854 254.99917406 257.41332594 256.09599113 259 258 C259 258.66 259 259.32 259 260 C259.66 260 260.32 260 261 260 C261 260.66 261 261.32 261 262 C261.99 262.33 262.98 262.66 264 263 C265.71010774 264.62206259 267.37071483 266.29677207 269 268 C270.8390238 269.8172364 272.67891388 271.63359644 274.51953125 273.44921875 C276.08173887 274.99670729 277.64300669 276.54513704 279.20385742 278.09399414 C280.2834909 279.16346868 281.36489711 280.23115639 282.44799805 281.29711914 C284.01818611 282.84317594 285.58193689 284.39549228 287.14453125 285.94921875 C288.54215698 287.33113403 288.54215698 287.33113403 289.96801758 288.7409668 C292 291 292 291 292 293 C292.66 293 293.32 293 294 293 C295.41015625 294.43359375 295.41015625 294.43359375 297.0625 296.4375 C301.12068366 301.22341701 305.52000931 305.6114377 310 310 C304.20197354 317.09745858 297.67120043 323.46199368 291.18920898 329.92431641 C289.88589345 331.22734954 288.58279873 332.53060356 287.27990723 333.83406067 C283.75541496 337.35883899 280.22785474 340.88053223 276.69972491 344.40166903 C273.00204398 348.09307814 269.30721437 351.78733899 265.61207581 355.48129272 C258.61495798 362.4753061 251.61529667 369.46676814 244.61470991 376.45730913 C236.66298226 384.39787146 228.71408149 392.34126104 220.76542556 400.28489804 C207.17774707 413.86389865 193.58796233 427.44078831 179.99580383 441.01530457 C179.42167018 441.58869863 178.84753652 442.16209269 178.25600487 442.75286233 C177.20350655 443.80399343 176.15099254 444.85510881 175.09845823 445.90620387 C172.8201389 448.18153087 170.54253232 450.45756326 168.26594639 452.73462486 C166.31832792 454.68175233 164.3645101 456.62218429 162.40625 458.55859375 C161.10412063 459.85151614 159.80203821 461.14448581 158.5 462.4375 C157.84902344 463.08009766 157.19804688 463.72269531 156.52734375 464.38476562 C153.67688337 467.22082974 150.89223509 470.04722153 148.34375 473.16015625 C146.02758731 475.96657338 143.6020732 478.45706482 141 481 C139.58194919 482.41528117 138.16543746 483.83210519 136.75 485.25 C128.16666667 493.83333333 119.58333333 502.41666667 111 511 C108.17994573 509.71570457 106.13200185 508.37962327 103.95089722 506.18467712 C103.088741 505.32447716 103.088741 505.32447716 102.20916748 504.44689941 C101.59084045 503.81981079 100.97251343 503.19272217 100.33544922 502.54663086 C99.6748349 501.8847023 99.01422058 501.22277374 98.33358765 500.54078674 C96.15265439 498.353366 93.97877948 496.15906234 91.8046875 493.96484375 C90.29112784 492.44501403 88.7770521 490.92569809 87.26248169 489.40687561 C83.27729571 485.40838592 79.29771464 481.4043678 75.31970215 477.39874268 C68.94616006 470.98207805 62.56587995 464.57213027 56.18237686 458.16537666 C53.94975291 455.9225013 51.72055687 453.67625936 49.4916687 451.42967224 C48.12981422 450.06099241 46.76785118 448.69242059 45.40576172 447.32397461 C44.78338623 446.69486176 44.16101074 446.0657489 43.51977539 445.41757202 C40.54835171 442.33082698 40.54835171 442.33082698 37 440 C37.5696211 436.22315809 39.12541833 434.50532057 41.80033875 431.84562683 C42.61762955 431.0256572 43.43492035 430.20568756 44.27697754 429.36087036 C45.63200378 428.02437943 45.63200378 428.02437943 47.0144043 426.66088867 C47.97097288 425.70680381 48.92687403 424.75204936 49.88215637 423.79667664 C51.94091699 421.74062197 54.0043504 419.68941682 56.07153893 417.64183617 C59.34452226 414.39988995 62.60708524 411.14759092 65.86836243 407.89387512 C71.03322738 402.74350672 76.20526019 397.60040339 81.3802622 392.46022254 C90.63276521 383.26953476 99.87329026 374.06681234 109.11090976 364.86116773 C112.35019483 361.63366706 115.59263469 358.40937967 118.83780038 355.18779218 C120.8641492 353.17535476 122.88844602 351.16086193 124.91230583 349.14592171 C126.28823449 347.7774118 127.66675867 346.411513 129.04537964 345.04571533 C133.58769156 340.51957987 137.88370869 335.91595595 142 331 C143.15351883 329.92082438 144.33626729 328.87078062 145.5625 327.875 C151.73775625 322.6386716 157.31870439 316.75924022 163 311 C158.95942476 306.08578687 154.63575203 301.59451417 150.10693359 297.12646484 C146.8005705 293.84710165 143.71365826 290.44943008 140.6875 286.9140625 C137.04601978 282.78367984 133.24625664 278.61118932 128.76171875 275.39453125 C128.18035156 274.93433594 127.59898437 274.47414063 127 274 C127 273.34 127 272.68 127 272 C126.41941833 271.74408081 125.83883667 271.48816162 125.24066162 271.2244873 C122.77816392 269.87876997 121.13437379 268.38829186 119.14941406 266.40820312 C118.40894836 265.67404175 117.66848267 264.93988037 116.90557861 264.18347168 C116.11689392 263.39073853 115.32820923 262.59800537 114.515625 261.78125 C113.70003113 260.96756958 112.88443726 260.15388916 112.04412842 259.31555176 C110.32367022 257.59645354 108.6057311 255.87483106 106.89013672 254.15087891 C104.25319068 251.50320366 101.6057262 248.86638469 98.95703125 246.23046875 C97.28842058 244.560537 95.62043014 242.88998522 93.953125 241.21875 C93.15634338 240.42601685 92.35956177 239.63328369 91.53863525 238.81652832 C90.44684967 237.71528625 90.44684967 237.71528625 89.33300781 236.59179688 C88.68777161 235.94496948 88.0425354 235.29814209 87.37774658 234.63171387 C86 233 86 233 86 231 C85.44212705 230.76702776 84.88425409 230.53405552 84.3094759 230.29402351 C81.40314882 228.66557804 79.40506161 226.65378438 77.04838562 224.29562378 C76.56396415 223.81361673 76.07954268 223.33160967 75.58044177 222.83499634 C73.95988996 221.22007601 72.34657977 219.59811198 70.7331543 217.97607422 C69.57194498 216.81593798 68.4103028 215.65623487 67.2482605 214.49693298 C64.0927045 211.3462267 60.94343906 208.18930055 57.79538321 205.03110266 C54.49609344 201.72302439 51.19152768 198.42022429 47.88764954 195.11672974 C42.33517671 189.56331998 36.78659125 184.00605018 31.24047852 178.44628906 C24.84094716 172.03106672 18.43623945 165.62105071 12.02849072 159.21403682 C5.19638495 152.3826086 -1.63189785 145.54736887 -8.4590795 138.71101999 C-10.42014267 136.74783219 -12.3819094 134.78534981 -14.34383583 132.82302475 C-17.43813444 129.72771555 -20.52984862 126.62984671 -23.61964798 123.53004646 C-24.74948276 122.39731018 -25.88014288 121.26539639 -27.01172066 120.13440132 C-32.35843337 114.78939897 -37.654146 109.44405144 -42.5498848 103.67484474 C-45.15255333 100.66883136 -47.98579126 97.89127337 -50.80859375 95.09375 C-51.42017838 94.48358032 -52.031763 93.87341064 -52.66188049 93.24475098 C-54.58471802 91.32743835 -56.51103094 89.41366298 -58.4375 87.5 C-59.75479059 86.18773415 -61.07184986 84.87523605 -62.38867188 83.5625 C-65.5897861 80.37231494 -68.79401865 77.18529349 -72 74 C-70.70005304 71.13643903 -69.32621927 69.07773819 -67.10202026 66.86151123 C-66.51028015 66.26702179 -65.91854004 65.67253235 -65.30886841 65.06002808 C-64.66150726 64.41985748 -64.01414612 63.77968689 -63.34716797 63.12011719 C-62.66412598 62.43678314 -61.98108398 61.7534491 -61.27734375 61.04940796 C-59.02033362 58.79379024 -56.7563237 56.54533778 -54.4921875 54.296875 C-52.92519314 52.73361108 -51.35864001 51.16990477 -49.79251099 49.60577393 C-45.67051858 45.49141555 -41.54255516 41.3830988 -37.41333008 37.27600098 C-33.20032416 33.08345834 -28.99297842 28.88524412 -24.78515625 24.6875 C-16.5289751 16.45276472 -8.26647643 8.22439935 0 0 Z " fill="#FED800" transform="translate(511,202)"/>
  <path d="M0 0 C3.24521921 1.4253282 5.40153915 3.15405742 7.89776611 5.65725708 C8.66053864 6.41728027 9.42331116 7.17730347 10.209198 7.96035767 C11.44997604 9.21192154 11.44997604 9.21192154 12.71582031 10.48876953 C13.59422577 11.36688293 14.47263123 12.24499634 15.37765503 13.14971924 C17.78181611 15.55503431 20.18145536 17.9646992 22.57919407 20.37640619 C25.08736128 22.89708199 27.60119926 25.41208935 30.11444092 27.92770386 C34.87115086 32.69062818 39.62273986 37.45862747 44.37250972 42.22847164 C49.7808817 47.65920388 55.19493866 53.08425334 60.60948038 58.50883317 C71.7459909 69.66624475 82.87534142 80.83077048 94 92 C89.40229877 97.51742939 84.51275116 102.62415082 79.42431641 107.68920898 C78.16479156 108.94895287 78.16479156 108.94895287 76.87982178 110.23414612 C74.59692854 112.51646567 72.31184536 114.79656386 70.02573442 117.07565951 C67.62963865 119.46546682 65.23641015 121.85814213 62.84286499 124.25050354 C58.3189109 128.77136042 53.79241577 133.28966403 49.26498258 137.80703646 C44.10696712 142.95384057 38.9518206 148.10351424 33.79690289 153.25342071 C23.20110519 163.83879052 12.60174313 174.42058456 2 185 C-3.51742939 180.40229877 -8.62415082 175.51275116 -13.68920898 170.42431641 C-14.94895287 169.16479156 -14.94895287 169.16479156 -16.23414612 167.87982178 C-18.51646567 165.59692854 -20.79656386 163.31184536 -23.07565951 161.02573442 C-25.46546682 158.62963865 -27.85814213 156.23641015 -30.25050354 153.84286499 C-34.77136042 149.3189109 -39.28966403 144.79241577 -43.80703646 140.26498258 C-48.95384057 135.10696712 -54.10351424 129.9518206 -59.25342071 124.79690289 C-69.83879052 114.20110519 -80.42058456 103.60174313 -91 93 C-86.99626801 88.19765595 -82.81086655 83.67397523 -78.37133789 79.27368164 C-77.73797012 78.64177414 -77.10460236 78.00986664 -76.45204163 77.35881042 C-75.08802845 75.99857768 -73.72286215 74.63950044 -72.35664558 73.28148079 C-70.18851134 71.12621398 -68.02360715 68.96774814 -65.85948181 66.80845642 C-60.48523067 61.4475126 -55.10554586 56.09203216 -49.72601318 50.73638916 C-45.17320894 46.20338853 -40.62250713 41.66829657 -36.07452202 37.13046074 C-33.95237891 35.01475091 -31.82722223 32.90210124 -29.70191956 30.78956604 C-21.2295359 22.38830755 -21.2295359 22.38830755 -13.30613708 13.47386169 C-11.13691666 11.02608579 -8.51267852 9.08498856 -6 7 C-3.91785369 4.73203285 -1.94148085 2.3889853 0 0 Z " fill="#FED800" transform="translate(511,420)"/>
  <path d="M0 0 C0.33 0.99 0.66 1.98 1 3 C-1.2375915 5.32478781 -3.49204232 7.63250154 -5.75 9.9375 C-6.70132812 10.9265332 -6.70132812 10.9265332 -7.671875 11.93554688 C-8.6 12.87817383 -8.6 12.87817383 -9.546875 13.83984375 C-10.39523926 14.71177368 -10.39523926 14.71177368 -11.26074219 15.60131836 C-13.17525154 17.14093431 -14.59987554 17.59308235 -17 18 C-13.31507651 13.46571472 -9.50897455 9.74148952 -5 6 C-3.23959026 4.05939084 -1.62665485 2.05723995 0 0 Z " fill="#FED723" transform="translate(510,421)"/>
  <path d="M0 0 C0 4.21226525 -2.37561148 5.97603335 -5.125 8.875 C-5.8365625 9.65037109 -5.8365625 9.65037109 -6.5625 10.44140625 C-9.82296629 13.93979846 -13.27388379 17.00362762 -17 20 C-17.66 19.67 -18.32 19.34 -19 19 C-12.73 12.73 -6.46 6.46 0 0 Z " fill="#FED40D" transform="translate(347,366)"/>
  <path d="M0 0 C0 3.7226489 -0.98537259 4.67462429 -3.25 7.5625 C-4.15492188 8.74005859 -4.15492188 8.74005859 -5.078125 9.94140625 C-7.01778912 12.0190546 -8.41115413 12.91127994 -11 14 C-12.11375 14.556875 -12.11375 14.556875 -13.25 15.125 C-13.8275 15.41375 -14.405 15.7025 -15 16 C-10.30233025 10.33870569 -5.25276628 5.14771096 0 0 Z " fill="#FDD616" transform="translate(311,402)"/>
  <path d="M0 0 C0.33 0.99 0.66 1.98 1 3 C-1.97 5.31 -4.94 7.62 -8 10 C-8.66 9.67 -9.32 9.34 -10 9 C-6.7 6.03 -3.4 3.06 0 0 Z " fill="#FED415" transform="translate(658,529)"/>
  <path d="M0 0 C4.29425875 1.07356469 4.74740471 1.5084773 7 5 C6.67 5.66 6.34 6.32 6 7 C4.02 4.69 2.04 2.38 0 0 Z " fill="#FCD109" transform="translate(266,576)"/>
</svg>